M48
; DRILL file {KiCad (6.0.5)} date Sat Mar  4 13:24:27 2023
; FORMAT={-:-/ absolute / inch / decimal}
; #@! TF.CreationDate,2023-03-04T13:24:27-08:00
; #@! TF.GenerationSoftware,Kicad,Pcbnew,(6.0.5)
; #@! TF.FileFunction,Plated,1,2,PTH
FMAT,2
INCH
; #@! TA.AperFunction,Plated,PTH,ViaDrill
T1C0.0157
; #@! TA.AperFunction,Plated,PTH,ComponentDrill
T2C0.0362
; #@! TA.AperFunction,Plated,PTH,ComponentDrill
T3C0.0394
; #@! TA.AperFunction,Plated,PTH,ComponentDrill
T4C0.0906
; #@! TA.AperFunction,Plated,PTH,ComponentDrill
T5C0.1063
%
G90
G05
T1
X3.425Y-3.365
X3.435Y-4.545
X3.49Y-3.41
X3.545Y-3.265
X3.59Y-3.35
X3.59Y-3.6
X3.675Y-3.35
X3.695Y-3.125
X3.695Y-3.22
X3.73Y-3.76
X3.73Y-3.905
X3.76Y-4.8
X3.79Y-4.075
X3.795Y-3.52
X3.875Y-3.12
X3.915Y-4.075
X3.92Y-4.945
X3.92Y-5.055
X3.92Y-5.19
X3.925Y-3.645
X3.965Y-3.55
X3.965Y-3.6
X3.98Y-4.675
X3.985Y-4.095
X3.985Y-5.38
X4.02Y-4.725
X4.05Y-3.445
X4.05Y-4.06
X4.05Y-5.46
X4.06Y-4.12
X4.0945Y-3.5995
X4.195Y-4.335
X4.195Y-4.58
X4.21Y-3.53
X4.26Y-3.605
X4.31Y-3.53
X4.395Y-4.28
X4.395Y-4.59
X4.41Y-3.53
X4.42Y-3.745
X4.51Y-3.53
X4.525Y-4.26
X4.525Y-5.53
X4.61Y-3.53
X4.625Y-4.26
X4.625Y-5.225
X4.625Y-5.335
X4.705Y-4.755
X4.86Y-3.605
X4.865Y-3.53
X5.005Y-5.08
X5.005Y-5.275
X5.065Y-4.13
X5.07Y-4.685
X5.08Y-5.605
X5.095Y-5.48
X5.1Y-5.175
X5.2Y-4.23
X5.21Y-5.005
X5.25Y-4.03
X5.265Y-5.05
X5.295Y-3.81
X5.295Y-4.33
X5.34Y-3.71
X5.34Y-3.93
X5.39Y-4.23
X5.39Y-4.43
X5.39Y-4.53
X5.425Y-5.135
X5.425Y-5.43
X5.44Y-3.555
T2
X3.8246Y-5.0522
X3.8246Y-5.1506
X3.8246Y-5.2294
X3.8246Y-5.3278
T3
X3.8598Y-5.59
X3.9598Y-5.59
X4.0094Y-3.0198
X4.0094Y-3.1198
X4.1094Y-3.0198
X4.1094Y-3.1198
X4.2094Y-3.0198
X4.2094Y-3.1198
X4.3Y-3.73
X4.3Y-3.83
X4.3Y-3.93
X4.3Y-4.03
X4.3Y-4.13
X4.3Y-4.23
X4.3Y-4.33
X4.3Y-4.43
X4.3Y-4.53
X4.3Y-4.63
X4.3Y-4.73
X4.3Y-4.83
X4.3Y-4.93
X4.3Y-5.03
X4.3Y-5.13
X4.3Y-5.23
X4.3Y-5.33
X4.3Y-5.43
X4.3Y-5.53
X4.3Y-5.63
X4.3094Y-3.0198
X4.3094Y-3.1198
X4.4094Y-3.0198
X4.4094Y-3.1198
X4.5094Y-3.0198
X4.5094Y-3.1198
X4.6094Y-3.0198
X4.6094Y-3.1198
X4.7094Y-3.0198
X4.7094Y-3.1198
X4.8094Y-3.0198
X4.8094Y-3.1198
X4.9Y-3.73
X4.9Y-3.83
X4.9Y-3.93
X4.9Y-4.03
X4.9Y-4.13
X4.9Y-4.23
X4.9Y-4.33
X4.9Y-4.43
X4.9Y-4.53
X4.9Y-4.63
X4.9Y-4.73
X4.9Y-4.83
X4.9Y-4.93
X4.9Y-5.03
X4.9Y-5.13
X4.9Y-5.23
X4.9Y-5.33
X4.9Y-5.43
X4.9Y-5.53
X4.9Y-5.63
X4.9094Y-3.0198
X4.9094Y-3.1198
X5.0094Y-3.0198
X5.0094Y-3.1198
X5.1094Y-3.0198
X5.1094Y-3.1198
X5.2094Y-3.0198
X5.2094Y-3.1198
X5.5302Y-3.4094
X5.5302Y-3.5094
X5.5302Y-3.6094
X5.5302Y-3.7094
X5.5302Y-3.8094
X5.5302Y-3.9094
X5.5302Y-4.0094
X5.5302Y-4.1094
X5.5302Y-4.2094
X5.5302Y-4.3094
X5.5302Y-4.4094
X5.5302Y-4.5094
X5.5302Y-4.6094
X5.6302Y-3.4094
X5.6302Y-3.5094
X5.6302Y-3.6094
X5.6302Y-3.7094
X5.6302Y-3.8094
X5.6302Y-3.9094
X5.6302Y-4.0094
X5.6302Y-4.1094
X5.6302Y-4.2094
X5.6302Y-4.3094
X5.6302Y-4.4094
X5.6302Y-4.5094
X5.6302Y-4.6094
T4
X3.718Y-4.9313
X3.718Y-5.4487
T5
X3.42Y-3.07
X3.42Y-5.58
X5.58Y-3.07
X5.58Y-5.58
T3
G00X3.6484Y-4.3018
M15
G01X3.6484Y-4.2782
M16
G05
G00X3.7783Y-4.475
M15
G01X3.7547Y-4.475
M16
G05
G00X3.8846Y-4.3018
M15
G01X3.8846Y-4.2782
M16
G05
T0
M30
